<?xml version="1.0" standalone="no"?>
<!DOCTYPE svg PUBLIC "-//W3C//DTD SVG 20010904//EN"
 "http://www.w3.org/TR/2001/REC-SVG-20010904/DTD/svg10.dtd">
<svg version="1.0" xmlns="http://www.w3.org/2000/svg"
 width="256.000000pt" height="256.000000pt" viewBox="0 0 256.000000 256.000000"
 preserveAspectRatio="xMidYMid meet">

<g transform="translate(0.000000,256.000000) scale(0.100000,-0.100000)"
fill="#000000" stroke="none">
<path d="M1745 1949 c-109 -30 -266 -40 -459 -29 -163 9 -314 13 -383 11 l-31
-1 34 -100 c18 -55 37 -107 41 -115 7 -11 31 1 115 56 l107 70 102 -51 c266
-134 447 -189 643 -197 l129 -6 -34 60 c-19 33 -68 119 -109 191 -41 73 -77
131 -80 131 -3 -1 -36 -10 -75 -20z"/>
<path d="M118 1806 c-37 -12 -70 -25 -74 -28 -3 -4 30 -134 74 -290 44 -156
126 -447 182 -648 57 -201 104 -367 106 -369 2 -2 188 94 202 105 4 3 -26 98
-241 754 -80 245 -149 457 -153 473 -7 32 -10 32 -96 3z"/>
<path d="M1115 1681 c-52 -32 -95 -92 -95 -132 0 -5 38 -9 85 -9 47 0 121 -8
163 -17 42 -9 88 -17 102 -17 14 0 28 -4 31 -9 8 -11 250 -119 255 -114 2 2
-8 26 -22 53 -54 103 -183 208 -302 244 -83 26 -177 26 -217 1z"/>
<path d="M1050 1514 c0 -8 7 -14 15 -14 8 0 15 6 15 13 0 9 2 9 9 -1 4 -8 12
-14 16 -14 4 0 12 6 16 14 7 10 9 10 9 1 0 -7 5 -13 11 -13 5 0 7 5 3 11 -4 7
1 7 16 -1 23 -12 36 -8 26 8 -3 5 -35 10 -71 10 -49 0 -65 -4 -65 -14z"/>
<path d="M1200 1515 c0 -8 7 -15 15 -15 8 0 15 4 15 9 0 5 -7 11 -15 15 -9 3
-15 0 -15 -9z"/>
<path d="M1250 1500 c0 -5 5 -10 10 -10 6 0 10 5 10 10 0 6 -4 10 -10 10 -5 0
-10 -4 -10 -10z"/>
<path d="M1290 1495 c0 -9 5 -15 11 -13 6 2 11 8 11 13 0 5 -5 11 -11 13 -6 2
-11 -4 -11 -13z"/>
<path d="M2020 1429 c-66 -83 -189 -202 -387 -374 l-113 -97 -137 55 c-158 62
-212 81 -219 74 -4 -3 82 -272 91 -284 0 -2 28 2 60 7 32 5 140 19 239 30 367
42 556 108 730 252 l28 24 -107 189 c-59 105 -111 193 -114 198 -4 4 -36 -29
-71 -74z"/>
<path d="M1330 1487 c0 -9 6 -18 13 -21 6 -3 -1 -3 -18 0 -68 14 -153 24 -204
24 -43 0 -52 -3 -47 -15 3 -8 1 -15 -4 -15 -6 0 -10 5 -10 10 0 6 -12 10 -26
10 -24 0 -25 -2 -19 -32 29 -136 197 -291 355 -327 126 -29 224 12 271 114 27
58 25 89 -8 104 -20 9 -24 15 -14 21 8 4 10 13 7 19 -11 17 -36 13 -36 -6 0
-9 -3 -13 -7 -9 -4 4 -8 15 -8 23 0 23 -25 29 -26 6 -1 -18 -1 -17 -15 26 -4
11 -8 10 -20 -5 -14 -19 -14 -19 -12 1 2 12 -3 20 -12 20 -8 0 -19 6 -23 13
-11 17 -27 15 -27 -3 0 -8 -4 -15 -9 -15 -5 0 -7 9 -4 20 4 14 0 20 -12 20
-11 0 -15 -5 -11 -15 3 -8 1 -15 -4 -15 -6 0 -10 8 -10 19 0 10 -8 21 -17 25
-10 3 -24 9 -30 12 -8 3 -13 -1 -13 -9z m-170 -147 c0 -5 -2 -10 -4 -10 -3 0
-8 5 -11 10 -3 6 -1 10 4 10 6 0 11 -4 11 -10z m250 0 c0 -5 -2 -10 -4 -10 -3
0 -8 5 -11 10 -3 6 -1 10 4 10 6 0 11 -4 11 -10z m190 -30 c0 -5 -4 -10 -10
-10 -5 0 -10 5 -10 10 0 6 5 10 10 10 6 0 10 -4 10 -10z m-360 -30 c0 -5 -2
-10 -4 -10 -3 0 -8 5 -11 10 -3 6 -1 10 4 10 6 0 11 -4 11 -10z m165 0 c3 -5
1 -10 -4 -10 -6 0 -11 5 -11 10 0 6 2 10 4 10 3 0 8 -4 11 -10z m194 -21 c-24
-15 -29 -10 -11 11 10 12 18 16 21 9 2 -6 -3 -15 -10 -20z m-294 -9 c3 -5 2
-10 -4 -10 -5 0 -13 5 -16 10 -3 6 -2 10 4 10 5 0 13 -4 16 -10z"/>
</g>
</svg>
